<svg width="62" height="160" viewBox="0 0 62 160" fill="none" xmlns="http://www.w3.org/2000/svg">
<g clip-path="url(#clip0_2048_2386)">
<path d="M15.73 34.9779V33.6629C11.2988 32.6986 8.28551 31.1207 8.28551 26.2115V8.06508L27.5172 22.7926L44.8434 10.0813V24.1076C44.8434 29.9372 42.6278 31.6028 36.6456 32.5233V33.8382H47.7681V1.0958L25.08 17.1821L2.48056 0V32.6548L15.73 34.9779Z" fill="black"/>
<path d="M57.2418 106.699C58.958 112.581 59.6251 116.548 57.2039 117.931C56.8433 118.137 56.5479 118.102 56.3992 117.847C56.0721 117.286 57.0291 116.808 56.1666 115.33C55.6609 114.464 54.569 114.476 53.7963 114.917C52.3538 115.741 51.8908 117.772 52.8723 119.454C53.5861 120.676 55.4986 121.011 57.5592 119.834C63.329 116.539 62.3059 108.902 60.9271 104.187L48.5233 61.4002C46.7398 55.2848 45.8862 50.8804 48.462 49.4094C48.8226 49.2035 49.1179 49.2387 49.2666 49.4935C49.5343 49.9521 48.7855 50.7874 49.5588 52.1123C50.0644 52.9785 51.0969 52.8645 51.8696 52.4232C53.312 51.5995 53.7751 49.5685 52.7936 47.8869C52.0798 46.6639 50.1673 46.3293 48.1066 47.5061C41.9247 51.0365 43.5565 59.4808 44.9056 64.1457L57.2418 106.699Z" fill="black"/>
<path d="M15.9693 39.3877C7.03731 41.7973 2.70665 46.2148 2.70665 51.4355C2.70665 58.2627 9.60864 61.4754 14.616 61.4754L14.7513 61.877C4.33066 76.8699 0 87.4452 0 104.044C0 125.597 9.60865 132.156 20.9766 132.156C25.0366 132.156 32.4799 130.951 33.9686 130.951C41.0059 130.951 46.1486 134.298 46.1486 140.054C46.1486 146.614 40.5999 150.897 35.1866 150.897C31.3973 150.897 29.7733 147.015 26.9313 147.015C23.142 147.015 21.2473 149.425 21.2473 152.504C21.2473 157.59 25.7133 160 30.9913 160C39.1113 160 50.3439 151.031 50.3439 138.849C50.3439 125.731 43.9833 119.841 30.0439 119.841C27.202 119.841 25.578 120.108 23.142 120.108C10.2853 120.108 6.36066 110.604 6.36066 99.4931C6.36066 83.9647 14.3453 69.1057 20.8413 61.877C32.0739 60.8061 43.5773 53.7112 43.5773 47.5535C43.5773 44.8762 41.8179 43.0021 38.2993 43.0021C31.2619 43.0021 21.3826 51.8371 17.864 57.7272C13.398 57.1917 8.79665 56.5224 8.79665 51.0339C8.79665 48.2228 11.5033 44.073 17.1873 41.3957L15.9693 39.3877Z" fill="black"/>
</g>
<defs>
<clipPath id="clip0_2048_2386">
<rect width="62" height="160" fill="white"/>
</clipPath>
</defs>
</svg>
