<svg viewBox="0 0 415 160" fill="none" xmlns="http://www.w3.org/2000/svg">
<g clip-path="url(#clip0_2048_2381)">
<path d="M124.482 110.117C122.489 111.753 121.316 112.338 119.441 112.338C117.33 112.338 115.806 110 115.806 104.623V82.2987C115.806 75.1688 115.337 72.7143 112.523 69.3246C109.71 65.935 105.255 64.0649 98.6892 64.0649C93.4135 64.0649 88.4894 65.4675 85.2067 67.5714C81.1034 70.1428 79.2275 73.8831 79.2275 76.922C79.2275 80.0779 81.8068 82.2987 84.2688 82.2987C87.317 82.2987 89.6618 79.7273 89.6618 77.5065C89.6618 75.0519 88.9584 74.7013 88.9584 72.5974C88.9584 69.4415 92.4755 66.8701 97.1651 66.8701C102.441 66.8701 106.31 70.1428 106.31 77.3896V83.7013C93.0617 88.6104 88.7239 90.8311 85.2067 93.1688C80.6344 96.2078 77 100.766 77 106.844C77 114.558 82.0413 119 89.3101 119C94.3514 119 100.096 117.481 106.31 110.468H106.427C107.013 116.662 109.592 119 113.93 119C117.916 119 120.965 117.831 124.482 113.39L124.482 110.117ZM106.31 102.987C106.31 106.377 105.606 108.013 102.206 110.351C100.213 111.636 97.7513 112.221 95.4065 112.221C90.8342 112.221 87.317 109.416 87.317 103.221C87.317 99.5974 88.4894 96.7922 91.3032 94.2208C94.2341 91.5324 99.0409 89.0779 106.31 86.5065V102.987ZM155.902 108.831C153.323 111.87 151.447 112.922 148.868 112.922C144.53 112.922 142.771 109.883 142.771 102.403V68.974H154.612V65.2337H142.771V51.6753C142.771 50.5065 142.537 50.1558 141.95 50.1558C141.247 51.3247 140.309 52.3766 139.606 53.4286C135.151 59.8571 131.282 64.1818 128.233 65.9351C126.944 66.7532 126.24 67.4545 126.24 68.1558C126.24 68.5065 126.358 68.7402 126.709 68.974H132.923V104.156C132.923 113.974 136.44 119 143.24 119C149.102 119 153.557 116.195 157.426 110.117L155.902 108.831ZM215.342 117.831V116.078C209.011 114.909 208.308 113.974 208.308 105.909V82.6493C208.308 70.3766 203.501 64.0649 193.887 64.0649C186.97 64.0649 182.046 66.8701 176.653 73.8831V38.3506L176.067 38C171.964 39.4026 169.267 40.2208 162.584 42.2078L159.419 43.1429V45.013C159.771 44.8961 160.357 44.8961 160.826 44.8961C165.867 44.8961 166.805 45.8312 166.805 50.8572V105.909C166.805 114.091 166.102 115.143 159.302 116.078V117.831H184.625V116.078C177.825 115.377 176.653 113.974 176.653 105.909V77.7403C181.577 72.3637 185.094 70.3767 189.784 70.3767C195.529 70.3767 198.46 74.5845 198.46 82.7663V105.909C198.46 113.974 197.287 115.377 190.487 116.078V117.831L215.342 117.831ZM299.285 117.831V115.61C290.492 114.909 288.851 113.156 288.851 104.857V53.7792C288.851 44.7792 290.609 43.3766 299.285 42.6753V40.4545H266.458V42.6753C275.368 43.3766 276.892 44.5454 276.892 53.7792V75.8701H241.369V53.7792C241.369 44.6623 243.245 43.3766 251.803 42.6753V40.4545H218.976V42.6753C228.004 43.3766 229.411 44.6623 229.411 53.7792V103.571C229.411 113.623 228.121 115.026 218.976 115.61V117.831H251.686L251.569 115.61C242.893 115.143 241.369 113.156 241.369 104.623V81.013H276.893V103.338C276.893 113.156 275.72 115.026 266.575 115.61V117.831H299.285ZM357.787 111.987H357.084C351.691 111.987 350.401 110.701 350.401 105.325V65.2337H331.878V67.2208C338.912 67.6883 340.553 68.6234 340.553 74.8182V101.818C340.553 105.909 339.733 106.961 337.857 108.597C334.926 111.169 331.409 112.221 328.009 112.221C323.436 112.221 319.685 108.364 319.685 102.987V65.2337H302.568V66.8701C308.195 67.2208 309.837 68.8571 309.837 74.7013V104.039C309.837 113.039 315.112 119 324.14 119C328.478 119 335.16 116.779 340.905 108.948H341.139V118.532L341.726 118.883C347.588 116.545 351.808 115.26 357.787 113.623V111.987ZM378.07 38.2337L377.484 38C372.56 39.7532 369.511 40.4545 364.001 42.0909L360.484 43.1429V45.1298C361.07 45.013 361.656 44.8961 362.477 44.8961C367.284 44.8961 368.222 45.8312 368.222 51.6753V111.286C368.222 115.26 378.07 119 387.566 119C403.042 119 415 107.078 415 89.7792C415 75.2857 406.442 64.0649 393.897 64.0649C386.745 64.0649 380.532 67.9221 378.07 73.8831V38.2337ZM378.07 80.6623C378.07 75.7533 383.463 71.4286 389.676 71.4286C393.897 71.4286 397.649 73.4156 400.111 76.922C403.042 81.013 404.683 87.7922 404.683 94.8052C404.683 101.584 403.159 106.727 400.345 110.234C397.766 113.506 394.014 115.26 389.442 115.26C383.345 115.26 378.07 112.922 378.07 109.182V80.6623Z" fill="black"/>
<path d="M15.1654 34V32.6842C10.7622 31.7193 7.7681 30.1404 7.7681 25.2281V7.07019L26.8777 21.807L44.0939 9.08772V23.1228C44.0939 28.9561 41.8924 30.6228 35.9481 31.5439V32.8597H47V0.0964956L24.456 16.193L2 -1V31.6754L15.1654 34Z" fill="black"/>
<path d="M56.6966 105.699C58.3964 111.581 59.0571 115.548 56.659 116.931C56.3018 117.137 56.0093 117.102 55.862 116.847C55.538 116.287 56.4859 115.808 55.6316 114.33C55.1308 113.464 54.0493 113.476 53.2839 113.917C51.8552 114.741 51.3966 116.772 52.3687 118.454C53.0757 119.677 54.97 120.011 57.011 118.834C62.7257 115.539 61.7124 107.903 60.3467 103.187L48.0612 60.4004C46.2947 54.285 45.4492 49.8805 48.0005 48.4095C48.3576 48.2036 48.6501 48.2388 48.7974 48.4936C49.0625 48.9522 48.3209 49.7875 49.0868 51.1124C49.5876 51.9786 50.6102 51.8646 51.3756 51.4233C52.8043 50.5996 53.2629 48.5686 52.2908 46.887C51.5837 45.664 49.6895 45.3294 47.6485 46.5062C41.5255 50.0366 43.1417 58.4809 44.478 63.1459L56.6966 105.699Z" fill="black"/>
<path d="M15.8602 38C6.98924 40.4173 2.68816 44.8491 2.68816 50.0866C2.68816 56.9356 9.543 60.1587 14.5161 60.1587L14.6505 60.5616C4.30108 75.6027 0 86.212 0 102.865C0 124.486 9.54301 131.067 20.8333 131.067C24.8656 131.067 32.2581 129.858 33.7366 129.858C40.7258 129.858 45.8333 133.215 45.8333 138.99C45.8333 145.57 40.3226 149.868 34.9462 149.868C31.1828 149.868 29.5699 145.973 26.7473 145.973C22.9839 145.973 21.1021 148.391 21.1021 151.479C21.1021 156.583 25.5376 159 30.7796 159C38.8441 159 50 150.002 50 137.781C50 124.62 43.6828 118.711 29.8387 118.711C27.0161 118.711 25.4032 118.98 22.9839 118.98C10.2151 118.98 6.3172 109.445 6.3172 98.2986C6.3172 82.7203 14.2473 67.8135 20.6989 60.5616C31.8548 59.4872 43.2796 52.3696 43.2796 46.192C43.2796 43.5061 41.5323 41.626 38.0376 41.626C31.0484 41.626 21.2366 50.4895 17.7419 56.3985C13.3065 55.8613 8.73656 55.1898 8.73656 49.6837C8.73656 46.8635 11.4247 42.7003 17.0699 40.0144L15.8602 38Z" fill="black"/>
</g>
<defs>
<clipPath id="clip0_2048_2381">
<rect width="415" height="160" fill="white"/>
</clipPath>
</defs>
</svg>
